# xmcd
#
# Track frame offsets:
#	150
#	12250
#	24755
#	41547
#	53315
#	68575
#	85367
#	101550
#	118880
#	134262
#
# Disc length: 2022 seconds
#
# Revision: 4
# Processed by: cddbd v1.5.1PL2 Copyright (c) Steve Scherf et al.
# Submitted via: dBpowerAMP V4.0
#
DISCID=7307e40a
DTITLE=Mark Chesnutt - What A Way To Live
DYEAR=1994
DGENRE=Country
TTITLE0=What A Way To Live
TTITLE1=Live A Little
TTITLE2=She Dreams
TTITLE3=Goin' Through The Big D
TTITLE4=Down In Tennessee
TTITLE5=Gonna Get A Life
TTITLE6=It's Almost Like You're Here
TTITLE7=Rainy Day Woman
TTITLE8=This Side Of The Door
TTITLE9=Half Of Everything (And All Of My Heart)
EXTD=
EXTT0=
EXTT1=
EXTT2=
EXTT3=
EXTT4=
EXTT5=
EXTT6=
EXTT7=
EXTT8=
EXTT9=
PLAYORDER=
